<?xml version="1.0" standalone="no"?>
<!DOCTYPE svg PUBLIC "-//W3C//DTD SVG 20010904//EN"
 "http://www.w3.org/TR/2001/REC-SVG-20010904/DTD/svg10.dtd">
<svg version="1.0" xmlns="http://www.w3.org/2000/svg"
 width="1080.000000pt" height="1080.000000pt" viewBox="0 0 1080.000000 1080.000000"
 preserveAspectRatio="xMidYMid meet">
<metadata>
Created by potrace 1.14, written by Peter Selinger 2001-2017
</metadata>
<g transform="translate(0.000000,1080.000000) scale(0.100000,-0.100000)"
fill="#000000" stroke="none">
<path d="M0 9981 l0 -818 46 -7 c52 -7 70 0 87 35 18 36 58 36 99 1 18 -16 55
-34 83 -41 45 -11 51 -11 60 4 15 26 91 96 120 111 13 7 57 16 95 20 56 5 74
3 88 -8 9 -9 28 -18 42 -21 31 -8 127 -69 144 -93 9 -11 20 -15 36 -11 25 6
80 -17 93 -39 4 -8 19 -14 33 -14 37 0 78 -27 99 -66 12 -22 30 -37 54 -45 20
-7 48 -24 62 -38 15 -14 47 -44 72 -66 28 -24 49 -52 53 -70 3 -16 14 -39 24
-50 30 -33 62 -116 55 -144 -4 -14 -16 -39 -28 -55 -29 -40 -47 -112 -33 -126
19 -19 46 -10 77 24 17 19 36 33 43 30 7 -3 19 2 26 11 7 8 19 15 26 15 8 0
19 11 26 25 18 40 79 76 130 77 25 0 51 -3 57 -7 6 -3 26 -8 43 -10 42 -6 143
-108 153 -156 4 -19 14 -41 21 -50 11 -12 12 -23 6 -40 -12 -31 -32 -94 -32
-101 0 -2 18 -11 40 -18 38 -13 42 -12 68 12 15 14 37 30 48 36 22 11 174 9
205 -3 10 -4 19 4 30 27 9 21 28 40 54 52 22 11 46 28 53 38 8 10 26 18 43 18
26 0 55 19 127 88 7 6 21 12 30 12 9 0 32 11 51 25 25 17 56 26 101 30 36 4
87 9 114 12 55 6 84 -6 132 -52 17 -16 43 -38 58 -49 25 -16 27 -22 21 -55
l-7 -36 21 19 c18 16 25 17 47 7 23 -10 30 -8 67 22 51 40 88 57 126 57 16 0
45 7 64 15 54 22 120 19 176 -10 27 -13 51 -30 54 -38 3 -8 23 -17 46 -21 33
-5 47 -15 76 -52 19 -26 35 -56 35 -66 0 -18 5 -19 53 -13 48 6 56 4 96 -25
l43 -32 -4 -54 c-6 -68 12 -83 73 -65 45 14 64 6 103 -40 56 -66 70 -107 68
-198 -1 -62 2 -87 13 -95 8 -7 17 -43 22 -91 7 -73 10 -80 29 -77 50 7 82 -87
45 -134 -23 -29 -29 -68 -8 -62 6 3 18 16 25 31 12 24 42 29 42 6 0 -18 17 -8
59 31 54 51 98 54 159 10 23 -17 42 -35 42 -41 0 -6 12 -9 28 -8 65 5 82 -1
102 -33 11 -18 20 -45 20 -59 0 -33 28 -59 63 -59 46 0 82 -28 115 -89 6 -13
12 -29 12 -36 0 -8 9 -16 19 -20 11 -3 23 -14 26 -25 3 -10 16 -25 28 -33 12
-8 47 -63 77 -123 57 -113 67 -127 113 -157 16 -10 27 -26 27 -39 0 -12 12
-32 26 -43 34 -27 43 -100 20 -165 -15 -45 -11 -62 22 -83 8 -5 12 -34 12 -83
0 -61 -4 -82 -21 -106 -18 -24 -26 -28 -48 -23 -39 10 -44 20 -26 54 19 38 12
55 -20 47 -29 -7 -40 7 -20 24 20 17 19 64 -2 81 -10 9 -35 13 -65 12 -43 -2
-52 1 -83 32 -42 43 -69 44 -121 5 -33 -25 -48 -29 -97 -30 -32 0 -84 9 -118
20 -34 12 -64 19 -66 16 -12 -12 9 -36 60 -70 84 -56 85 -76 5 -76 -63 0 -110
20 -164 70 -24 22 -47 40 -51 40 -11 0 -43 58 -43 79 0 26 -20 41 -54 41 -17
0 -38 5 -46 10 -12 8 -11 12 7 32 68 75 71 180 3 143 -52 -29 -75 -11 -48 38
10 20 8 19 -24 -5 -27 -21 -52 -29 -103 -34 l-67 -7 7 -35 c8 -41 -4 -52 -56
-52 -22 0 -47 8 -63 21 -35 28 -56 19 -56 -25 0 -31 -4 -35 -32 -42 -43 -9
-74 -30 -122 -83 -45 -48 -66 -59 -134 -66 -68 -8 -81 -14 -87 -38 -7 -26 -8
-75 -3 -102 2 -14 -3 -20 -17 -20 -17 0 -21 -8 -25 -63 -5 -68 -20 -88 -53
-71 -24 13 -47 4 -47 -18 0 -10 -9 -29 -19 -42 -16 -21 -28 -25 -78 -25 -49
-1 -67 -6 -103 -31 -24 -16 -54 -40 -66 -52 -13 -13 -30 -23 -39 -23 -23 0
-75 -28 -112 -61 -37 -32 -39 -28 46 -85 49 -33 56 -35 66 -20 21 28 35 18 35
-24 0 -28 4 -40 14 -40 8 0 18 5 21 10 3 6 32 10 64 10 48 0 63 -4 85 -25 23
-21 26 -31 26 -93 0 -71 -7 -87 -50 -115 -23 -16 -25 -16 -47 5 -26 25 -22 26
-143 -37 -63 -33 -67 -44 -42 -99 12 -25 22 -63 22 -83 l1 -38 17 23 c67 89
95 122 105 122 7 1 30 9 52 20 92 44 183 15 172 -55 -5 -30 -3 -33 23 -39 20
-4 38 -19 57 -48 30 -47 56 -147 42 -162 -5 -6 -9 -23 -9 -39 0 -33 -15 -64
-42 -91 -12 -11 -17 -24 -12 -35 4 -9 8 -29 8 -46 1 -27 -3 -31 -33 -35 -44
-7 -61 -32 -38 -58 26 -28 22 -62 -6 -62 -42 0 -167 -98 -167 -131 0 -5 -11
-14 -25 -19 l-25 -10 6 -97 c5 -82 10 -102 29 -123 26 -30 35 -52 42 -105 6
-51 6 -51 51 -59 53 -8 69 -30 71 -101 2 -43 8 -66 22 -81 21 -22 26 -69 8
-80 -6 -3 -30 8 -54 25 -50 36 -60 38 -45 12 5 -11 10 -29 10 -41 0 -17 -4
-20 -17 -14 -31 13 -110 16 -132 5 -30 -16 -26 -29 14 -53 39 -22 75 -82 75
-123 0 -35 -29 -33 -64 4 -29 30 -82 58 -92 48 -3 -3 4 -18 15 -34 33 -44 38
-95 12 -130 -16 -21 -22 -42 -21 -74 6 -186 -3 -214 -65 -195 -33 10 -34 12
-20 33 9 13 15 46 15 82 0 50 -6 72 -40 138 -22 43 -47 83 -56 89 -10 8 -16
33 -18 78 -2 60 -6 70 -36 101 -19 19 -43 35 -53 35 -17 0 -15 -5 12 -35 36
-42 41 -85 11 -115 -16 -16 -19 -28 -13 -67 3 -27 14 -61 24 -77 13 -22 17
-41 12 -73 -7 -54 21 -150 47 -158 9 -3 25 -26 35 -52 l18 -46 -35 -31 c-20
-17 -48 -41 -63 -53 -29 -25 -31 -61 -5 -73 65 -31 83 -31 148 2 62 30 64 31
98 15 l34 -17 35 38 c19 20 35 42 35 48 0 17 31 40 72 55 35 12 40 11 67 -9
17 -12 44 -22 60 -22 16 0 33 -5 36 -10 9 -15 61 -12 103 6 63 26 130 -9 202
-104 25 -33 25 -33 61 -18 19 8 40 26 46 39 12 26 85 67 120 67 30 0 111 -76
121 -113 5 -19 21 -41 41 -54 66 -45 121 -103 121 -128 0 -29 36 -53 53 -36
27 27 100 3 116 -38 14 -37 22 -107 15 -125 -6 -15 -8 -15 -19 1 -13 17 -14
17 -20 1 -4 -9 -5 -29 -3 -45 2 -20 8 -28 22 -26 13 1 15 -2 7 -10 -32 -32 20
-61 61 -33 34 24 63 19 97 -15 29 -29 32 -29 53 -15 30 22 60 20 103 -5 33
-20 41 -21 91 -10 79 15 108 -4 141 -94 13 -35 29 -56 53 -71 65 -41 83 -63
75 -92 -3 -15 -14 -67 -24 -116 -20 -98 -34 -116 -87 -116 -26 0 -33 5 -38 26
-7 27 -2 54 16 91 11 22 3 93 -10 93 -4 0 -15 -13 -25 -29 -28 -48 -105 -121
-127 -121 -14 0 -27 13 -41 44 -21 41 -86 96 -116 96 -19 0 -16 -12 12 -50 14
-19 25 -42 25 -53 0 -16 -5 -18 -32 -12 -48 10 -60 31 -53 88 5 36 4 47 -7 47
-14 0 -78 -56 -78 -69 0 -4 14 -28 30 -54 31 -49 37 -72 21 -81 -27 -17 -72
-121 -81 -188 -12 -82 -29 -115 -62 -120 -15 -2 -24 -11 -26 -24 -2 -16 -12
-23 -38 -27 -57 -9 -65 -2 -58 53 6 45 4 50 -29 86 -34 37 -38 39 -95 38 -53
-1 -61 2 -66 20 -10 36 -70 91 -113 104 -22 7 -48 23 -56 36 -16 24 -43 32
-143 42 -40 5 -61 1 -93 -16 -23 -11 -46 -18 -52 -14 -13 8 -63 -13 -119 -50
-29 -20 -54 -29 -73 -27 -15 1 -35 -3 -43 -10 -19 -15 -31 -4 -15 15 17 21 6
37 -68 102 -69 60 -92 69 -153 60 -42 -6 -84 -10 -140 -14 -14 -1 -40 -13 -56
-27 -17 -14 -37 -25 -45 -25 -8 0 -43 -23 -77 -50 -34 -28 -65 -51 -69 -51 -3
-1 -16 -3 -28 -4 -12 -1 -34 -10 -47 -19 -32 -20 -27 -21 -71 14 -34 27 -45
30 -107 30 -39 0 -82 -6 -96 -13 -15 -8 -40 -20 -57 -28 -17 -8 -40 -34 -55
-62 -15 -30 -34 -50 -48 -54 -32 -8 -35 -1 -21 45 10 34 9 47 -10 97 -24 64
-115 161 -160 171 -14 3 -38 10 -52 16 -15 5 -48 6 -75 2 -39 -6 -59 -16 -97
-53 -27 -25 -54 -52 -62 -58 -7 -7 -22 -13 -32 -13 -11 0 -34 -16 -53 -35 -24
-25 -37 -32 -46 -24 -18 15 -5 89 22 122 26 30 27 35 25 82 -2 41 -20 84 -48
118 -13 16 -23 37 -23 47 0 10 -23 40 -51 66 -28 27 -63 61 -78 75 -14 14 -43
32 -65 40 -22 8 -44 25 -52 40 -18 37 -61 69 -91 69 -13 0 -33 9 -44 19 -21
19 -82 36 -98 27 -4 -3 -19 6 -31 19 -13 14 -29 25 -37 25 -7 0 -13 7 -13 15
0 8 -12 18 -27 21 -15 4 -43 17 -62 28 -46 27 -178 33 -223 10 -27 -14 -31
-14 -41 0 -14 18 -78 46 -107 46 -11 0 -43 -11 -70 -25 -60 -30 -94 -31 -140
-5 -94 54 -120 63 -164 50 -22 -6 -56 -15 -74 -20 -18 -4 -48 -25 -67 -46 -27
-29 -38 -35 -47 -26 -7 7 -27 12 -46 12 -23 0 -40 7 -52 22 -15 19 -29 23 -74
24 l-56 0 0 -1498 0 -1498 5400 0 5400 0 0 5400 0 5400 -5400 0 -5400 0 0
-819z m4310 -3356 c0 -27 -27 -79 -51 -101 -32 -28 -148 -51 -178 -34 -34 18
-15 36 100 94 114 59 129 64 129 41z m958 -548 c-4 -40 -32 -58 -55 -35 -16
17 -16 19 5 41 32 34 54 31 50 -6z m1381 -600 c-2 -1 -13 -9 -24 -17 -19 -14
-19 -14 -6 3 7 9 18 17 24 17 6 0 8 -1 6 -3z m-44 -91 c11 -8 16 -19 12 -30
-6 -14 -10 -15 -28 -4 -12 7 -30 18 -41 25 -20 11 -20 11 -2 16 33 8 40 7 59
-7z m1225 -145 c0 -6 -4 -13 -10 -16 -5 -3 -10 -14 -10 -24 0 -10 -11 -28 -25
-41 -14 -13 -25 -32 -25 -42 0 -10 -3 -18 -8 -18 -4 0 -13 -13 -20 -30 -11
-25 -20 -30 -48 -30 -45 0 -68 33 -58 84 4 26 2 43 -10 61 -21 33 -21 34 17
50 36 16 197 20 197 6z m-958 -212 c17 -9 19 -19 18 -67 -3 -84 -2 -90 21
-102 16 -9 24 -8 38 4 26 23 37 20 60 -17 11 -18 34 -45 51 -60 16 -15 30 -33
30 -39 0 -7 21 -55 47 -108 50 -102 51 -107 36 -249 -9 -81 -22 -98 -67 -87
-34 8 -136 109 -136 134 0 10 -10 27 -21 38 -12 10 -32 43 -45 72 -12 28 -34
62 -47 75 -25 22 -57 102 -57 142 0 11 -6 29 -14 40 -7 11 -16 46 -19 78 -5
49 -2 65 20 107 27 52 45 60 85 39z m658 -22 c0 -29 -15 -51 -29 -43 -14 9
-14 49 1 64 15 15 28 6 28 -21z m-3782 -73 c2 -21 8 -43 13 -48 28 -29 -15
-153 -74 -213 -26 -28 -38 -33 -77 -33 -72 0 -96 43 -42 77 65 40 100 93 138
211 19 61 38 63 42 6z m3802 -618 c0 -2 -8 -10 -17 -17 -16 -13 -17 -12 -4 4
13 16 21 21 21 13z m-2807 -2698 c10 -37 85 -78 144 -78 74 0 87 -14 88 -96 0
-78 -5 -76 105 -58 44 7 55 13 57 29 11 116 15 135 29 135 8 0 19 -11 24 -25
5 -14 16 -25 25 -25 18 0 35 -39 35 -79 0 -37 23 -56 65 -53 18 1 39 -3 47
-11 7 -7 32 -13 55 -13 38 1 47 -5 83 -44 27 -29 40 -54 40 -72 0 -31 6 -33
45 -18 32 12 42 7 104 -53 41 -40 49 -54 55 -97 5 -40 2 -58 -15 -91 l-21 -42
22 -17 c19 -14 21 -22 15 -63 -6 -37 -15 -53 -50 -85 -50 -45 -73 -43 -99 11
-9 20 -29 46 -45 60 -16 13 -32 33 -35 45 -4 11 -15 24 -26 27 -10 3 -25 23
-33 44 -15 37 -76 100 -100 102 -7 1 -19 1 -28 0 -21 -2 -33 15 -48 68 -18 64
-52 94 -96 85 -31 -5 -40 -1 -87 41 -49 42 -56 46 -92 40 -38 -6 -96 -39 -96
-55 0 -12 -31 -21 -51 -15 -14 5 -19 16 -19 41 0 47 -43 114 -73 114 -16 0
-23 6 -24 23 -5 71 -16 128 -26 134 -8 5 -12 39 -12 95 l0 86 16 -33 c9 -18
19 -44 22 -57z"/>
<path d="M5656 784 c-17 -16 -21 -34 -8 -34 16 0 52 32 47 41 -9 13 -21 11
-39 -7z"/>
<path d="M358 4503 c-15 -2 -37 -16 -48 -30 -33 -42 -60 -58 -70 -42 -14 21
-145 13 -197 -13 l-43 -22 0 -186 c0 -201 7 -230 54 -230 24 0 56 52 56 93 0
13 9 42 20 65 17 34 26 42 58 48 20 3 53 17 72 29 48 32 86 40 115 25 21 -11
28 -9 64 20 23 17 64 38 92 45 46 12 54 12 75 -3 35 -26 30 -42 -13 -42 -25
-1 -52 -10 -77 -28 -41 -29 -42 -30 -77 -105 -21 -47 -21 -50 -5 -84 10 -22
15 -47 11 -63 -6 -26 -3 -28 44 -44 27 -9 54 -16 60 -16 6 0 20 33 32 73 12
39 25 76 29 80 13 14 70 -68 70 -101 0 -40 36 -85 62 -76 17 5 19 3 13 -15 -8
-25 -3 -26 47 -4 31 14 44 28 60 65 11 27 27 48 34 48 8 0 14 7 14 15 0 29 40
96 53 89 32 -18 57 -50 63 -81 3 -18 8 -33 11 -33 3 0 30 25 60 56 51 51 54
57 39 73 -19 21 -21 42 -3 35 17 -6 48 18 39 31 -12 18 -82 55 -102 55 -11 0
-43 23 -72 51 -65 62 -120 92 -172 92 -38 0 -74 24 -76 52 -1 16 -43 61 -65
72 -27 12 -163 9 -177 -5 -7 -7 -20 -6 -44 4 -33 14 -52 15 -106 7z"/>
<path d="M2560 4276 c0 -3 9 -10 20 -16 11 -6 20 -8 20 -6 0 3 -9 10 -20 16
-11 6 -20 8 -20 6z"/>
<path d="M2373 4263 c9 -2 23 -2 30 0 6 3 -1 5 -18 5 -16 0 -22 -2 -12 -5z"/>
<path d="M2155 4220 c-4 -7 3 -8 22 -4 38 9 42 14 10 14 -14 0 -29 -5 -32 -10z"/>
<path d="M1258 4199 c-26 -13 -38 -26 -38 -41 0 -12 -12 -32 -26 -43 l-27 -22
18 -46 c23 -61 96 -146 153 -177 71 -39 81 -46 101 -64 22 -20 41 -14 41 12 0
9 7 38 16 63 17 46 17 46 -10 85 -29 44 -33 76 -11 94 14 12 13 15 -5 32 -22
21 -35 60 -26 83 4 11 -1 15 -18 15 -13 0 -29 7 -36 15 -18 21 -87 18 -132 -6z"/>
<path d="M1480 4201 c0 -11 31 -24 39 -16 3 3 -1 10 -9 15 -19 12 -30 12 -30
1z"/>
<path d="M1686 4134 c1 -20 8 -41 14 -48 10 -8 11 -6 6 14 -3 14 -6 35 -6 48
0 12 -3 22 -8 22 -4 0 -7 -16 -6 -36z"/>
<path d="M2151 4133 c-12 -10 -30 -37 -41 -60 -16 -37 -17 -43 -3 -54 18 -16
46 -1 51 27 2 10 15 31 29 46 42 45 11 79 -36 41z"/>
<path d="M214 4105 c-9 -23 3 -45 25 -45 24 0 39 39 20 51 -21 13 -39 11 -45
-6z"/>
<path d="M2000 3985 c-8 -9 -8 -15 -2 -15 12 0 26 19 19 26 -2 2 -10 -2 -17
-11z"/>
<path d="M101 3873 c-16 -14 -23 -36 -30 -92 l-10 -74 35 -43 c50 -60 124 -67
124 -11 0 12 7 31 15 41 20 26 19 89 -1 127 -10 19 -31 37 -60 50 -55 23 -47
23 -73 2z"/>
<path d="M1070 3795 c0 -14 -4 -25 -9 -25 -18 0 -25 -91 -9 -119 18 -33 14
-102 -7 -113 -27 -16 -18 -38 16 -38 16 0 28 -4 25 -9 -3 -5 -14 -7 -25 -4
-27 7 -66 -51 -63 -96 1 -20 4 -82 7 -139 4 -83 10 -109 27 -136 25 -38 90
-66 154 -66 30 0 46 -6 63 -24 13 -14 33 -26 44 -28 20 -3 28 -18 42 -82 6
-27 8 -28 50 -22 35 6 52 2 92 -18 26 -14 65 -28 85 -31 28 -4 41 -13 56 -39
11 -19 31 -36 47 -40 14 -4 44 -18 65 -32 23 -15 46 -23 57 -20 10 3 31 -3 48
-14 43 -28 71 -25 97 10 25 35 48 38 73 10 15 -17 16 -23 5 -52 -7 -18 -17
-37 -21 -42 -4 -5 -1 -15 7 -24 35 -35 94 31 93 105 -1 49 14 131 31 165 11
23 9 33 -14 79 -14 29 -26 58 -26 64 0 25 -92 114 -136 131 -44 17 -45 17 -69
-6 -22 -20 -27 -21 -54 -10 -17 7 -36 18 -42 26 -6 8 -18 14 -26 14 -8 0 -32
12 -52 28 -31 24 -60 39 -158 85 -32 15 -29 24 6 19 36 -5 89 17 96 39 3 9 15
19 26 22 20 5 20 6 3 34 -10 15 -28 41 -41 56 -21 26 -22 34 -16 135 7 128 -8
182 -51 182 -29 0 -66 -42 -66 -76 0 -20 -5 -24 -28 -24 -16 0 -37 -9 -47 -20
-46 -51 -145 6 -145 82 0 46 -8 68 -26 68 -10 0 -14 -12 -14 -39 0 -59 -18
-61 -64 -9 -62 69 -106 87 -106 43z m408 -442 c3 -28 1 -30 -22 -26 -28 6 -34
31 -14 51 19 19 33 9 36 -25z"/>
<path d="M810 3731 c0 -5 7 -12 16 -15 14 -5 15 -4 4 9 -14 17 -20 19 -20 6z"/>
<path d="M900 3720 c0 -5 -11 -10 -24 -10 -24 0 -36 -16 -36 -51 0 -25 26 -25
40 0 5 11 20 21 32 23 29 4 34 24 9 38 -14 7 -21 7 -21 0z"/>
<path d="M776 3381 c-26 -29 -13 -118 21 -144 22 -18 23 -21 9 -43 -15 -22
-13 -54 4 -54 17 0 32 31 26 53 -4 18 2 31 24 52 25 24 30 37 30 75 0 44 -2
47 -38 63 -49 21 -55 21 -76 -2z"/>
<path d="M1670 3300 c0 -23 10 -26 28 -8 18 18 15 28 -8 28 -13 0 -20 -7 -20
-20z"/>
<path d="M3531 3263 c-9 -6 -12 -15 -8 -19 4 -5 12 -2 17 6 7 12 15 12 52 0
24 -7 54 -20 66 -27 35 -22 41 -5 8 22 -33 27 -109 37 -135 18z"/>
<path d="M4179 3141 l-24 -19 25 -27 c22 -23 31 -26 68 -22 24 3 46 7 49 10 3
3 -5 22 -17 41 -25 42 -63 48 -101 17z"/>
<path d="M3500 3016 c0 -27 51 -76 92 -86 22 -6 42 -9 44 -7 13 13 -25 60 -67
82 -56 29 -69 31 -69 11z"/>
<path d="M3310 2931 c0 -6 5 -13 10 -16 6 -3 10 1 10 9 0 9 -4 16 -10 16 -5 0
-10 -4 -10 -9z"/>
<path d="M4015 2849 c-9 -28 8 -45 25 -25 13 17 7 46 -9 46 -5 0 -13 -9 -16
-21z"/>
<path d="M4113 2849 c-7 -7 -13 -22 -13 -33 0 -11 -12 -32 -26 -47 -37 -38
-24 -52 40 -44 56 8 86 20 86 35 0 6 -8 10 -17 10 -12 0 -25 17 -38 46 -16 36
-22 43 -32 33z"/>
<path d="M4394 2809 c-10 -16 10 -31 37 -27 22 3 22 4 5 21 -20 20 -32 22 -42
6z"/>
<path d="M4353 2648 l-22 -31 27 -33 c15 -18 39 -39 54 -45 15 -6 33 -17 39
-25 6 -8 18 -14 27 -14 8 0 26 -12 39 -26 20 -21 26 -24 39 -13 11 9 13 23 9
51 -6 35 -5 38 17 38 32 0 39 -8 26 -30 -21 -34 -3 -50 56 -50 48 0 58 3 72
25 22 34 10 81 -34 127 -31 33 -42 38 -80 38 -47 0 -82 -14 -82 -33 0 -13 -89
-49 -102 -41 -4 3 -8 12 -8 20 0 24 -29 74 -43 74 -6 0 -22 -14 -34 -32z"/>
<path d="M4126 2623 c-9 -49 -26 -93 -37 -93 -12 0 -41 -58 -31 -64 10 -6 34
14 57 49 20 32 47 130 37 139 -12 13 -20 4 -26 -31z"/>
<path d="M4250 2300 c-9 -6 -10 -10 -3 -10 6 0 15 5 18 10 8 12 4 12 -15 0z"/>
<path d="M4303 2263 c5 -27 2 -42 -10 -55 -15 -17 -15 -20 7 -43 17 -18 23
-36 23 -70 0 -28 4 -44 11 -42 17 6 19 75 2 108 -9 18 -13 42 -9 59 7 36 -3
80 -18 80 -8 0 -10 -13 -6 -37z"/>
<path d="M4200 2213 c0 -5 5 -15 10 -23 8 -12 10 -11 10 8 0 12 -4 22 -10 22
-5 0 -10 -3 -10 -7z"/>
</g>
</svg>
