<svg height="1.5em" viewBox="0 0 384.04 384.04" width="1.5em" xmlns="http://www.w3.org/2000/svg" xmlns:xlink="http://www.w3.org/1999/xlink"><linearGradient id="a" gradientUnits="userSpaceOnUse" x1="195.835" x2="319.165" y1="97.413" y2="343.843"><stop offset="0" stop-color="#fff" stop-opacity="0"/><stop offset=".5" stop-color="#71c2ff"/><stop offset="1" stop-color="#39aaff"/></linearGradient><path d="m195.84 97.413c-.44 0-1.1 0-1.32.44l-.44 1.1 73.996 277.27a192.04 192.04 0 0 0 86.77-74.437l-157.68-203.71a1.762 1.762 0 0 0 -1.321-.661z" fill="url(#a)" opacity=".5"/><path d="m191.34 7.8127a192 192 0 0 0 -162 294l160.1-207c.5-.6 1.5-1 2.6-1s2 .4 2.6 1l160 207a192 192 0 0 0 29.4-102c0-106-86-192-192-192a192 192 0 0 0 -.7 0z" fill="#2185d0"/></svg>