<svg height="1.5em" preserveAspectRatio="xMidYMid" viewBox="0 -10 255.822 235.654" width="1.5em" xmlns="http://www.w3.org/2000/svg"><path d="m127.911 225.654 47.104-144.97h-94.208z" fill="#e24329"/><path d="m127.911 225.653-47.104-144.97h-66.015z" fill="#fc6d26"/><path d="m14.792 80.683-14.314 44.056a9.75 9.75 0 0 0 3.543 10.903l123.891 90.012z" fill="#fca326"/><path d="m14.792 80.684h66.015l-28.371-87.315c-1.459-4.493-7.815-4.492-9.275 0z" fill="#e24329"/><path d="m127.911 225.653 47.104-144.97h66.015z" fill="#fc6d26"/><path d="m241.03 80.683 14.314 44.055a9.75 9.75 0 0 1 -3.543 10.903l-123.891 90.012z" fill="#fca326"/><path d="m241.03 80.684h-66.015l28.371-87.314c1.459-4.493 7.815-4.492 9.275 0z" fill="#e24329"/></svg>