<?xml version="1.0" encoding="UTF-8" standalone="no"?>
<!-- Uploaded to: SVG Repo, www.svgrepo.com, Generator: SVG Repo Mixer Tools -->

<svg
   aria-label="Codeberg"
   role="img"
   viewBox="0 0 384.03543 368.41031"
   version="1.1"
   id="svg4"
   sodipodi:docname="codeberg.svg"
   width="384.03543"
   height="368.41031"
   xmlns:inkscape="http://www.inkscape.org/namespaces/inkscape"
   xmlns:sodipodi="http://sodipodi.sourceforge.net/DTD/sodipodi-0.dtd"
   xmlns="http://www.w3.org/2000/svg"
   xmlns:svg="http://www.w3.org/2000/svg">
  <sodipodi:namedview
     id="namedview4"
     pagecolor="#ffffff"
     bordercolor="#000000"
     borderopacity="0.25"
     inkscape:showpageshadow="2"
     inkscape:pageopacity="0.0"
     inkscape:pagecheckerboard="0"
     inkscape:deskcolor="#d1d1d1">
    <inkscape:page
       x="0"
       y="0"
       width="384.03543"
       height="368.41031"
       id="page2"
       margin="0"
       bleed="0" />
  </sodipodi:namedview>
  <rect
     width="512"
     height="512"
     rx="15.000001%"
     fill="#ffffff"
     id="rect1"
     x="-63.964581"
     y="-71.799683" />
  <defs
     id="defs3">
    <linearGradient
       id="A"
       x1="259.80399"
       x2="383.13199"
       y1="161.39999"
       y2="407.83499"
       gradientUnits="userSpaceOnUse"
       gradientTransform="translate(-63.964579,-71.799683)">
      <stop
         offset="0"
         stop-color="#ffffff"
         stop-opacity="0"
         id="stop1" />
      <stop
         offset=".5"
         stop-color="#71c2ff"
         id="stop2" />
      <stop
         offset="1"
         stop-color="#39aaff"
         id="stop3" />
    </linearGradient>
  </defs>
  <path
     fill="url(#A)"
     d="m 195.83942,89.600317 c -0.44,0 -1.1,0 -1.32,0.44 l -0.44,1.1 73.996,277.270003 a 192.039,192.039 0 0 0 86.77,-74.437 L 197.16042,90.260317 a 1.762,1.762 0 0 0 -1.321,-0.661 z"
     opacity="0.5"
     paint-order="stroke markers fill"
     id="path3"
     style="fill:url(#A)" />
  <path
     fill="#2185d0"
     d="M 191.33542,3.1901068e-4 A 192,192 0 0 0 29.335421,294.00032 L 189.43542,87.000317 c 0.5,-0.6 1.5,-1 2.6,-1 1.1,0 2,0.4 2.6,1 l 160,207.000003 a 192,192 0 0 0 29.4,-102 c 0,-106.000003 -86,-192.00000098932 -192,-192.00000098932 a 192,192 0 0 0 -0.7,0 z"
     paint-order="stroke markers fill"
     id="path4"
     inkscape:export-filename="path4.svg"
     inkscape:export-xdpi="96"
     inkscape:export-ydpi="96" />
</svg>
