<svg xmlns="http://www.w3.org/2000/svg" width="384.035" height="368.41" xmlns:v="https://vecta.io/nano"><rect width="512" height="512" rx="15.000001%" fill="#fff" x="-63.965" y="-71.8"/><defs><linearGradient id="A" x1="195.839" x2="319.167" y1="89.6" y2="336.035" gradientUnits="userSpaceOnUse"><stop offset="0" stop-color="#fff" stop-opacity="0"/><stop offset=".5" stop-color="#71c2ff"/><stop offset="1" stop-color="#39aaff"/></linearGradient></defs><path fill="url(#A)" d="M195.839 89.6c-.44 0-1.1 0-1.32.44l-.44 1.1 73.996 277.27a192.039 192.039 0 0 0 86.77-74.437L197.16 90.26a1.762 1.762 0 0 0-1.321-.661z" opacity=".5" paint-order="stroke markers fill"/><path fill="#2185d0" d="M191.335 0a192 192 0 0 0-162 294l160.1-207c.5-.6 1.5-1 2.6-1s2 .4 2.6 1l160 207a192 192 0 0 0 29.4-102c0-106-86-192-192-192a192 192 0 0 0-.7 0z" paint-order="stroke markers fill"/></svg>