<svg xmlns="http://www.w3.org/2000/svg" width="800" height="800" viewBox="0 0 120 120" xmlns:v="https://vecta.io/nano"><path d="M112.613 60A52.613 52.613 0 1 1 7.387 60a52.613 52.613 0 1 1 105.227 0z" fill="#eef"/><g fill="#263238"><path d="M92.008 44.216h.834v11.348h-.834z"/><path d="M94.703 45.681c-.387.671-4.17.671-4.557 0s1.504-3.946 2.278-3.946 2.666 3.276 2.278 3.946z"/><path d="M96.339 50.516c-.665 1.153-7.164 1.153-7.829 0s2.584-6.78 3.915-6.78 4.58 5.628 3.915 6.78z"/></g><g fill-rule="evenodd"><path d="M43.394 58.577c-2.801.054-7.031 1.26-14.402 3.829-8.428 2.937-15.617 3.088-21.382 2.072A52.613 52.613 0 0 0 60 112.613a52.613 52.613 0 0 0 50.724-38.868 24.42 24.42 0 0 0-5.615 1.526c-21.441 8.577-30.375 10.363-45.741-2.502-10.564-8.845-9.812-14.311-15.974-14.193z" fill="#837297"/><path d="M76.623 65.552l16.924-13.587 10.479 1.19 7.81 13.528z" fill="#263238"/><path d="M80.345 58.577c-6.162-.118-5.41 5.348-15.974 14.193-15.366 12.865-24.3 11.078-45.742 2.502-3.349-1.339-6.505-1.841-9.448-1.735a52.613 52.613 0 0 0 103.184-8.598c-5.035.368-10.936-.203-17.621-2.533-7.37-2.568-11.599-3.775-14.4-3.829z" fill="#655978"/></g><g fill="#263238"><path d="M99.239 47.708h.498v6.782h-.498z"/><path d="M100.85 48.584c-.231.401-2.492.401-2.723 0s.899-2.358 1.362-2.358 1.593 1.958 1.362 2.358z"/><path d="M101.828 51.473c-.398.689-4.281.689-4.679 0s1.544-4.052 2.339-4.052 2.737 3.363 2.339 4.052z"/></g><g fill="#37474f"><path d="M85.669 54.298h.309v4.206h-.309z"/><path d="M86.668 54.841c-.144.249-1.545.249-1.689 0s.557-1.463.844-1.463.988 1.214.844 1.463z"/><path d="M87.275 56.633c-.247.427-2.655.427-2.902 0s.958-2.513 1.451-2.513 1.698 2.086 1.451 2.513z"/></g></svg>