<svg xmlns="http://www.w3.org/2000/svg" width="799.444" height="736.419" viewBox="0 -10 255.822 235.654" preserveAspectRatio="xMidYMid" xmlns:v="https://vecta.io/nano"><path d="M127.911 225.654h0l47.104-144.97H80.807z" fill="#e24329"/><path d="M127.911 225.653L80.807 80.683H14.792z" fill="#fc6d26"/><path d="M14.792 80.683h0L.478 124.739a9.75 9.75 0 0 0 3.543 10.903l123.891 90.012z" fill="#fca326"/><path d="M14.792 80.684h66.015L52.436-6.631c-1.459-4.493-7.815-4.492-9.275 0z" fill="#e24329"/><path d="M127.911 225.653l47.104-144.97h66.015z" fill="#fc6d26"/><path d="M241.03 80.683h0l14.314 44.055a9.75 9.75 0 0 1-3.543 10.903L127.91 225.653z" fill="#fca326"/><path d="M241.03 80.684h-66.015L203.386-6.63c1.459-4.493 7.815-4.492 9.275 0z" fill="#e24329"/></svg>