<svg xmlns="http://www.w3.org/2000/svg" width="800" height="800" viewBox="0 0 24 24" xmlns:v="https://vecta.io/nano"><path fill="#0077b5" fill-rule="evenodd" d="M20.452 20.45h-3.559v-5.569c0-1.328-.023-3.037-1.85-3.037-1.852 0-2.134 1.447-2.134 2.942v5.665H9.353V8.997h3.413v1.566h.049c.475-.901 1.636-1.85 3.367-1.85 3.605 0 4.271 2.372 4.271 5.456v6.281zM5.339 7.433c-1.144 0-2.065-.925-2.065-2.065s.922-2.064 2.065-2.064 2.063.925 2.063 2.064-.925 2.065-2.063 2.065h0zM7.12 20.45H3.557V8.997H7.12V20.45zM23 0H1a1 1 0 0 0-1 1v22a1 1 0 0 0 1.001 1h22a1 1 0 0 0 1-1V1a1 1 0 0 0-1-1h0z"/></svg>