<?xml version="1.0" encoding="UTF-8" standalone="no"?>
<!-- Uploaded to: SVG Repo, www.svgrepo.com, Generator: SVG Repo Mixer Tools -->

<svg
   width="666.66669"
   height="700"
   viewBox="0 0 20.000001 21"
   version="1.1"
   id="svg5"
   sodipodi:docname="rss.svg"
   inkscape:version="1.4.2 (ebf0e940d0, 2025-05-08)"
   xmlns:inkscape="http://www.inkscape.org/namespaces/inkscape"
   xmlns:sodipodi="http://sodipodi.sourceforge.net/DTD/sodipodi-0.dtd"
   xmlns="http://www.w3.org/2000/svg"
   xmlns:svg="http://www.w3.org/2000/svg">
  <defs
     id="defs5" />
  <sodipodi:namedview
     id="namedview5"
     pagecolor="#ffffff"
     bordercolor="#000000"
     borderopacity="0.25"
     inkscape:showpageshadow="2"
     inkscape:pageopacity="0.0"
     inkscape:pagecheckerboard="0"
     inkscape:deskcolor="#d1d1d1"
     inkscape:zoom="1.46"
     inkscape:cx="333.56164"
     inkscape:cy="333.56164"
     inkscape:window-width="2560"
     inkscape:window-height="1376"
     inkscape:window-x="0"
     inkscape:window-y="0"
     inkscape:window-maximized="1"
     inkscape:current-layer="svg5" />
  <g
     transform="translate(-2,-1030.4)"
     id="g5">
    <g
       id="g4">
      <path
         d="m 4,1031.4 c -1.1046,0 -2,0.9 -2,2 v 16 c 0,1.1 0.8954,2 2,2 h 16 c 1.105,0 2,-0.9 2,-2 v -16 c 0,-1.1 -0.895,-2 -2,-2 z"
         fill="#d35400"
         id="path1" />
      <path
         d="M 4,2 C 2.8954,2 2,2.8954 2,4 v 16 c 0,1.105 0.8954,2 2,2 h 16 c 1.105,0 2,-0.895 2,-2 V 4 C 22,2.8954 21.105,2 20,2 Z"
         transform="translate(0,1028.4)"
         fill="#e67e22"
         id="path2" />
      <path
         d="m 5,1034.4 v 2.3 c 6.443,0 11.667,5.2 11.667,11.7 H 19 c 0,-7.8 -6.268,-14 -14,-14 z m 0,4.6 v 2.4 c 3.866,0 7,3.1 7,7 h 2.333 c 0,-5.2 -4.178,-9.4 -9.333,-9.4 z m 2.0417,5.3 c -1.1276,0 -2.0417,0.9 -2.0417,2 0,1.1 0.9141,2.1 2.0417,2.1 1.1275,0 2.0416,-1 2.0416,-2.1 0,-1.1 -0.9141,-2 -2.0416,-2 z"
         fill="#d35400"
         id="path3" />
      <path
         d="m 5,1033.4 v 2.3 c 6.443,0 11.667,5.2 11.667,11.7 H 19 c 0,-7.8 -6.268,-14 -14,-14 z m 0,4.6 v 2.4 c 3.866,0 7,3.1 7,7 h 2.333 c 0,-5.2 -4.178,-9.4 -9.333,-9.4 z m 2.0417,5.3 c -1.1276,0 -2.0417,0.9 -2.0417,2 0,1.1 0.9141,2.1 2.0417,2.1 1.1275,0 2.0416,-1 2.0416,-2.1 0,-1.1 -0.9141,-2 -2.0416,-2 z"
         fill="#ecf0f1"
         id="path4" />
    </g>
  </g>
</svg>
