<svg height="1.5em" viewBox="0 0 20 21" width="1.5em" xmlns="http://www.w3.org/2000/svg"><path d="m2 1c-1.105 0-2 .9-2 2v16c0 1.1.895 2 2 2h16c1.105 0 2-.9 2-2v-16c0-1.1-.895-2-2-2z" fill="#d35400"/><path d="m2 0a2 2 0 0 0 -2 2v16a2 2 0 0 0 2 2h16a2 2 0 0 0 2-2v-16a2 2 0 0 0 -2-2z" fill="#e67e22"/><path d="m3 4v2.3c6.443 0 11.667 5.2 11.667 11.7h2.333c0-7.8-6.268-14-14-14zm0 4.6v2.4a6.98 6.98 0 0 1 7 7h2.333c0-5.2-4.178-9.4-9.333-9.4zm2.042 5.3c-1.128 0-2.042.9-2.042 2s.914 2.1 2.042 2.1 2.042-1 2.042-2.1-.914-2-2.042-2z" fill="#d35400"/><path d="m3 3v2.3c6.443 0 11.667 5.2 11.667 11.7h2.333c0-7.8-6.268-14-14-14zm0 4.6v2.4a6.98 6.98 0 0 1 7 7h2.333c0-5.2-4.178-9.4-9.333-9.4zm2.042 5.3c-1.128 0-2.042.9-2.042 2s.914 2.1 2.042 2.1 2.042-1 2.042-2.1-.914-2-2.042-2z" fill="#ecf0f1"/></svg>